HIERARCHY
ROOT SpineBase
{
  OFFSET 0.000000 0.000000 0.000000
  CHANNELS 6 Xposition Yposition Zposition Zrotation Xrotation Yrotation
  JOINT SpineMid
  {
    OFFSET 0.000000 31.651153 0.000000
    CHANNELS 3 Zrotation Xrotation Yrotation
    JOINT SpineShoulder
    {
      OFFSET -0.049893 23.448223 -0.740117
      CHANNELS 3 Zrotation Xrotation Yrotation
      JOINT Neck
      {
        OFFSET 0.012773 7.734532 -0.564536
        CHANNELS 3 Zrotation Xrotation Yrotation
        JOINT Head
        {
          OFFSET -4.038033 14.459857 -2.837589
          CHANNELS 3 Zrotation Xrotation Yrotation
          End Site
          {
            OFFSET 0 0 0
          }
        }
      }
      JOINT ShoulderLeft
      {
        OFFSET -18.170879 -4.950737 3.712701
        CHANNELS 3 Zrotation Xrotation Yrotation
        JOINT ElbowLeft
        {
          OFFSET -2.409738 -29.619683 2.415521
          CHANNELS 3 Zrotation Xrotation Yrotation
          JOINT WristLeft
          {
            OFFSET -0.705038 -22.863824 -5.734350
            CHANNELS 3 Zrotation Xrotation Yrotation
            JOINT HandLeft
            {
              OFFSET 0.475478 -3.722358 -0.379146
              CHANNELS 3 Zrotation Xrotation Yrotation
              JOINT HandTipLeft
              {
                OFFSET 1.551434 -7.381579 -1.913931
                CHANNELS 3 Zrotation Xrotation Yrotation
                End Site
                {
                  OFFSET 0 0 0
                }
              }
              JOINT ThumbLeft
              {
                OFFSET -3.921370 -1.423390 -2.886129
                CHANNELS 3 Zrotation Xrotation Yrotation
                End Site
                {
                  OFFSET 0 0 0
                }
              }
            }
          }
        }
      }
      JOINT ShoulderRight
      {
        OFFSET 16.653542 -3.169617 -5.890910
        CHANNELS 3 Zrotation Xrotation Yrotation
        JOINT ElbowRight
        {
          OFFSET 4.111749 -26.139850 -1.826998
          CHANNELS 3 Zrotation Xrotation Yrotation
          JOINT WristRight
          {
            OFFSET -4.057683 -22.458721 -9.392434
            CHANNELS 3 Zrotation Xrotation Yrotation
            JOINT HandRight
            {
              OFFSET -4.165692 -6.296982 -2.847797
              CHANNELS 3 Zrotation Xrotation Yrotation
              JOINT HandTipRight
              {
                OFFSET -1.882687 -5.778341 -1.248752
                CHANNELS 3 Zrotation Xrotation Yrotation
                End Site
                {
                  OFFSET 0 0 0
                }
              }
              JOINT ThumbRight
              {
                OFFSET -2.805173 1.692318 -0.619409
                CHANNELS 3 Zrotation Xrotation Yrotation
                End Site
                {
                  OFFSET 0 0 0
                }
              }
            }
          }
        }
      }
    }
  }
  JOINT HipLeft
  {
    OFFSET -7.480361 0.393700 -2.120115
    CHANNELS 3 Zrotation Xrotation Yrotation
    JOINT KneeLeft
    {
      OFFSET 1.860441 -33.358651 2.940464
      CHANNELS 3 Zrotation Xrotation Yrotation
      JOINT AnkleLeft
      {
        OFFSET 2.992447 -35.500384 8.791641
        CHANNELS 3 Zrotation Xrotation Yrotation
        JOINT FootLeft
        {
          OFFSET -1.520639 -5.935702 -10.422645
          CHANNELS 3 Zrotation Xrotation Yrotation
          End Site
          {
            OFFSET 0 0 0
          }
        }
      }
    }
  }
  JOINT HipRight
  {
    OFFSET 7.947292 1.328444 -5.293339
    CHANNELS 3 Zrotation Xrotation Yrotation
    JOINT KneeRight
    {
      OFFSET 6.294376 -33.159180 -0.201245
      CHANNELS 3 Zrotation Xrotation Yrotation
      JOINT AnkleRight
      {
        OFFSET 3.009082 -35.743175 7.965404
        CHANNELS 3 Zrotation Xrotation Yrotation
        JOINT FootRight
        {
          OFFSET -0.978866 -6.478971 -9.780267
          CHANNELS 3 Zrotation Xrotation Yrotation
          End Site
          {
            OFFSET 0 0 0
          }
        }
      }
    }
  }
}
MOTION
Frames: 9
Frame Time: 0.033333
-19.822298 84.448622 310.960926 -0.000000 0.000000 11.622740 -0.000000 0.000000 -11.622740 -0.000000 0.000000 0.000000 -0.000000 0.000000 0.000000 0.000000 0.000000 0.000000 -0.000000 0.000000 0.000000 -0.000000 0.000000 0.000000 -0.000000 0.000000 0.000000 -0.000000 0.000000 0.000000 0.000000 0.000000 0.000000 0.000000 0.000000 0.000000 -0.000000 0.000000 0.000000 -0.000000 0.000000 0.000000 -0.000000 0.000000 0.000000 -0.000000 0.000000 0.000000 0.000000 0.000000 0.000000 0.000000 0.000000 0.000000 -0.000000 0.000000 -11.622740 -0.000000 0.000000 0.000000 -0.000000 0.000000 0.000000 0.000000 0.000000 0.000000 -0.000000 0.000000 -11.622740 -0.000000 0.000000 0.000000 -0.000000 0.000000 0.000000 0.000000 0.000000 0.000000
-20.221604 84.468914 311.248931 -0.222411 -0.069793 12.031637 0.232074 0.021898 -12.031817 -0.000000 0.000000 0.000000 -0.000000 0.000000 0.000000 0.000000 0.000000 0.000000 -0.000000 0.000000 0.000000 -0.410796 -1.015875 0.130991 -4.309654 -0.475219 0.175215 2.422404 -0.447596 -0.141615 0.000000 0.000000 0.000000 0.000000 0.000000 0.000000 -0.000000 0.000000 0.000000 -0.000000 0.000000 0.000000 3.370097 -1.170926 -0.733119 -2.839849 2.079092 0.356802 0.000000 0.000000 0.000000 0.000000 0.000000 0.000000 0.232074 0.021898 -12.031817 -0.000000 0.000000 0.000000 1.362640 -8.131380 -0.239987 0.000000 0.000000 0.000000 0.232074 0.021898 -12.031817 -0.000000 0.000000 0.000000 -1.241430 3.881591 1.262748 0.000000 0.000000 0.000000
-20.569556 84.485187 311.498783 -0.398068 -0.134073 12.379601 0.417556 0.045612 -12.380233 -0.000000 0.000000 0.000000 -0.000000 0.000000 0.000000 0.000000 0.000000 0.000000 -0.315985 -0.820576 0.038697 -0.511292 -1.108625 0.222561 -8.370992 -0.685589 0.426148 4.966601 -1.163898 -0.453360 0.000000 0.000000 0.000000 0.000000 0.000000 0.000000 -0.225320 1.152618 0.199247 0.221356 -1.153385 -0.194752 6.719628 -2.494275 -1.309341 -5.388405 3.896955 0.707088 0.000000 0.000000 0.000000 0.000000 0.000000 0.000000 1.224034 0.292075 -12.294765 -0.735519 -0.412512 -0.090492 2.625915 -15.652672 -0.286416 0.000000 0.000000 0.000000 1.258940 -0.112631 -12.380032 -0.855745 -0.025830 0.000098 -2.347278 7.094209 2.385189 0.000000 0.000000 0.000000
-20.866152 84.497439 311.710480 -0.527139 -0.192869 12.665970 0.556601 0.072585 -12.667210 -0.000000 0.000000 0.000000 0.115150 0.998280 0.300808 0.000000 0.000000 0.000000 -0.462172 -1.211653 0.055934 -0.786786 -1.527623 0.330462 -12.058197 -0.588396 0.766181 7.551033 -2.166560 -0.914575 0.000000 0.000000 0.000000 0.000000 0.000000 0.000000 -0.170468 1.535059 0.255495 0.163681 -1.535797 -0.251017 10.085359 -3.976562 -1.717248 -7.676784 5.476819 1.047202 0.000000 0.000000 0.000000 0.000000 0.000000 0.000000 1.657724 0.395436 -12.552219 -1.004687 -0.554362 -0.124348 3.714608 -21.916758 -0.185866 0.000000 0.000000 0.000000 1.744584 -0.083965 -12.653902 -1.193422 -0.107492 -0.014309 -3.314488 9.729079 3.365312 0.000000 0.000000 0.000000
-21.111394 84.505670 311.884024 -0.609772 -0.246210 12.890128 0.649331 0.103965 -12.892028 -0.000000 0.000000 0.000000 0.143562 1.254752 0.377692 0.000000 0.000000 0.000000 -0.600315 -1.589287 0.071911 -1.075817 -1.856083 0.437367 -15.279497 -0.159115 1.206049 10.116545 -3.458730 -1.490570 0.000000 0.000000 0.000000 0.000000 0.000000 0.000000 -0.001876 1.782128 0.280204 0.591202 -2.776096 -0.329614 12.892291 -4.646270 -2.095684 -9.746369 6.850099 1.376814 0.000000 0.000000 0.000000 0.000000 0.000000 0.000000 1.972919 0.475105 -12.755646 -0.547800 -0.176365 0.058798 3.806683 -26.999431 -0.207207 0.000000 0.000000 0.000000 2.138738 0.004544 -12.857782 -1.474194 -0.234474 -0.038673 -4.144497 11.868976 4.205311 0.000000 0.000000 0.000000
-21.305280 84.509881 312.019415 -0.646090 -0.294124 13.051487 -0.118313 -0.106080 -13.077929 0.118315 -0.097012 -0.021100 0.784955 1.994857 0.482975 0.000000 0.000000 0.000000 -0.109990 -1.431910 0.134891 -1.378632 -2.094006 0.544261 -17.978343 0.611685 1.750135 12.630131 -5.031314 -2.136771 0.000000 0.000000 0.000000 0.000000 0.000000 0.000000 0.896887 2.413626 0.312006 1.274753 -3.574877 -0.563938 15.449954 -5.753907 -2.080235 -11.649846 8.056955 1.698746 0.000000 0.000000 0.000000 0.000000 0.000000 0.000000 2.170003 0.533708 -12.903997 -0.563974 -0.162642 0.079679 4.176563 -29.805797 -0.094936 0.000000 0.000000 0.000000 2.443625 0.155129 -12.991374 -1.699840 -0.406937 -0.073174 -4.841129 13.584045 4.909561 0.000000 0.000000 0.000000
-21.495570 84.514944 312.148116 -0.645552 -0.367116 13.196221 -0.103447 -0.123990 -13.222729 0.129865 -0.108907 -0.019277 0.779627 2.291943 0.539561 0.000000 0.000000 0.000000 -0.267454 -1.797762 0.156508 -1.580425 -2.203805 0.620060 -19.943719 1.594820 2.337837 16.719963 -5.839082 -2.945425 0.000000 0.000000 0.000000 0.000000 0.000000 0.000000 1.372185 2.417600 0.245113 2.259817 -4.669038 -0.839451 19.457890 -7.819439 -1.588361 -15.262068 9.987837 2.336978 0.000000 0.000000 0.000000 0.000000 0.000000 0.000000 2.334590 0.573855 -13.038401 -0.593281 -0.095643 0.101501 2.983054 -24.555674 -0.187370 0.000000 0.000000 0.000000 2.785480 0.430384 -13.092887 -1.969490 -0.683896 -0.130051 -6.434246 17.797059 6.436434 0.000000 0.000000 0.000000
-21.597631 84.509650 312.216850 -0.572198 -0.407693 13.218565 -0.095915 -0.143394 -13.242493 0.130550 -0.126124 -0.015516 0.688131 2.525859 0.576512 0.000000 0.000000 0.000000 -0.449787 -2.034274 0.165328 -1.930172 -2.315000 0.730756 -22.170709 2.655699 3.047659 19.425762 -6.998786 -3.370613 0.000000 0.000000 0.000000 0.000000 0.000000 0.000000 1.753733 2.297335 0.163690 3.749498 -5.753470 -1.233569 21.952804 -9.128223 -0.865767 -16.574242 11.472218 2.288183 0.000000 0.000000 0.000000 0.000000 0.000000 0.000000 2.288636 0.631228 -13.061008 -0.473528 -0.075185 0.136129 2.796252 -24.399745 -0.223823 0.000000 0.000000 0.000000 2.934301 0.721519 -13.071847 -2.122126 -0.959613 -0.187723 -7.536106 19.659646 7.617831 0.000000 0.000000 0.000000
-21.624484 84.501384 312.219393 -0.454644 -0.377603 13.189305 0.528813 0.263895 -13.192021 -0.000000 0.000000 0.000000 0.187340 1.787324 0.534394 0.000000 0.000000 0.000000 -1.053429 -2.939130 0.125874 -2.300019 -2.411230 0.851775 -23.166717 3.719623 3.580405 20.840558 -8.257170 -3.625586 0.000000 0.000000 0.000000 0.000000 0.000000 0.000000 1.799291 1.309545 0.059470 5.231917 -6.612699 -1.648736 23.046519 -9.929030 0.127092 -16.963974 13.047722 1.692881 0.000000 0.000000 0.000000 0.000000 0.000000 0.000000 2.062769 0.530092 -13.042410 -0.321334 0.097426 0.172012 2.637569 -23.760876 -0.380823 0.000000 0.000000 0.000000 2.919859 0.997290 -12.993045 -2.165468 -1.251276 -0.248945 -6.620342 17.905823 6.668017 0.000000 0.000000 0.000000
